<svg width="24" height="24" viewBox="0 0 24 24" fill="none" xmlns="http://www.w3.org/2000/svg">
    <path fill-rule="evenodd" clip-rule="evenodd" d="M12 7a3 3 0 1 1 0-6 3 3 0 0 1 0 6zm0-2a1 1 0 1 0 0-2 1 1 0 0 0 0 2zm-1 2h2a3 3 0 0 1 3 3v1a3 3 0 0 1-3 3h-2a3 3 0 0 1-3-3v-1a3 3 0 0 1 3-3zm0 2a1 1 0 0 0-1 1v1a1 1 0 0 0 1 1h2a1 1 0 0 0 1-1v-1a1 1 0 0 0-1-1h-2zm8 7a3 3 0 1 1 0-6 3 3 0 0 1 0 6zm0-2a1 1 0 1 0 0-2 1 1 0 0 0 0 2zm-1 2h2a3 3 0 0 1 3 3v1a3 3 0 0 1-3 3h-2a3 3 0 0 1-3-3v-1a3 3 0 0 1 3-3zm0 2a1 1 0 0 0-1 1v1a1 1 0 0 0 1 1h2a1 1 0 0 0 1-1v-1a1 1 0 0 0-1-1h-2zM5 16a3 3 0 1 1 0-6 3 3 0 0 1 0 6zm0-2a1 1 0 1 0 0-2 1 1 0 0 0 0 2zm-1 2h2a3 3 0 0 1 3 3v1a3 3 0 0 1-3 3H4a3 3 0 0 1-3-3v-1a3 3 0 0 1 3-3zm0 2a1 1 0 0 0-1 1v1a1 1 0 0 0 1 1h2a1 1 0 0 0 1-1v-1a1 1 0 0 0-1-1H4z" fill="#92929D"/>
</svg>
