<svg width="24" height="24" viewBox="0 0 24 24" fill="none" xmlns="http://www.w3.org/2000/svg">
    <path fill-rule="evenodd" clip-rule="evenodd" d="M19.727 5.652A9.959 9.959 0 0 1 22 12c0 5.523-4.477 10-10 10S2 17.523 2 12 6.477 2 12 2c2.392 0 4.589.84 6.31 2.241l.55-.55.262-1.395a1 1 0 0 1 1.966.37l-.057.303.304-.057a1 1 0 1 1 .369 1.966l-1.48.278-.497.496zm-2.84.013a8 8 0 1 0 1.419 1.41l-1.43 1.428a6 6 0 1 1-1.42-1.408l1.43-1.43zM14.01 8.541a4 4 0 1 0 1.423 1.405l-1.508 1.509A2.002 2.002 0 0 1 12 14a2 2 0 1 1 .49-3.94l1.52-1.519z" fill="#92929D"/>
</svg>
