<svg width="24" height="24" viewBox="0 0 24 24" fill="none" xmlns="http://www.w3.org/2000/svg">
    <path fill-rule="evenodd" clip-rule="evenodd" d="M9.63 10.79c-.18-.191-.213-.634.02-1.16.878-2.345.997-2.78.435-3.373l-3.61-3.799c-.693-.73-1.794-.544-2.475.173C1.333 5.438 1.333 9.97 4 12.776l6.742 7.097c2.694 2.836 7.085 2.836 9.78 0 .658-.693.82-1.765.164-2.457l-3.61-3.8c-.605-.636-1.016-.511-3.27.421-.52.254-.877.224-1.035.058l-3.14-3.306zm9.381 7.768c-1.91 1.943-4.933 1.923-6.819-.063L5.45 11.398c-1.89-1.989-1.932-5.205-.128-7.25l3.006 3.164-.007.026c-.094.344-.269.86-.52 1.536-.515 1.15-.418 2.454.38 3.293l3.14 3.305c.82.863 2.122.971 3.31.386a18.35 18.35 0 0 1 1.339-.502l3.041 3.202z" fill="#92929D"/>
    <path d="M13.7 10.2a.8.8 0 0 0-.8-.8 1 1 0 1 1 0-2 2.8 2.8 0 0 1 2.8 2.8 1 1 0 1 1-2 0z" fill="#92929D"/>
    <path d="M12.9 6.7a3.5 3.5 0 0 1 3.5 3.5 1 1 0 1 0 2 0 5.5 5.5 0 0 0-5.5-5.5 1 1 0 1 0 0 2z" fill="#92929D"/>
    <path d="M19.1 10.2A6.2 6.2 0 0 0 12.9 4a1 1 0 1 1 0-2 8.2 8.2 0 0 1 8.2 8.2 1 1 0 1 1-2 0z" fill="#92929D"/>
</svg>
