<svg width="24" height="24" viewBox="0 0 24 24" fill="none" xmlns="http://www.w3.org/2000/svg">
    <path fill-rule="evenodd" clip-rule="evenodd" d="M5.7 3h12.6C20.34 3 22 4.639 22 6.667v10.666C22 19.361 20.34 21 18.3 21H5.7C3.66 21 2 19.361 2 17.333V6.667C2 4.639 3.66 3 5.7 3zm0 2C4.758 5 4 5.749 4 6.667v10.666C4 18.251 4.758 19 5.7 19h12.6c.942 0 1.7-.749 1.7-1.667V6.667C20 5.749 19.242 5 18.3 5H5.7zm5.511 11.694c-.692.573-1.657.307-2.045-.462A1.577 1.577 0 0 1 9 15.523V8.477C9 7.708 9.552 7 10.372 7c.31 0 .604.111.84.306l4.255 3.523c.546.451.68 1.256.367 1.88-.09.177-.213.335-.367.462l-4.256 3.523zM11 9.727v4.546L13.745 12 11 9.727z" fill="#92929D"/>
</svg>
